<svg xmlns="http://www.w3.org/2000/svg" xmlns:xlink="http://www.w3.org/1999/xlink" width="200" zoomAndPan="magnify" viewBox="0 0 150 149.999998" height="200" preserveAspectRatio="xMidYMid meet" version="1.0"><defs><clipPath id="115f07b4a6"><path d="M 19.621094 26 L 129 26 L 129 132 L 19.621094 132 Z M 19.621094 26 " clip-rule="nonzero"/></clipPath></defs><path fill="#2b2b2b" d="M 22.855469 81.746094 C 35.878906 93.597656 44.296875 104.265625 58.226562 128.992188 C 88.515625 52.542969 129.988281 32.914062 124.726562 29.527344 C 114.089844 22.390625 62.324219 82.230469 56.066406 90.128906 C 48.539062 86.140625 22.859375 72.210938 22.859375 81.746094 Z M 22.855469 81.746094 " fill-opacity="1" fill-rule="evenodd"/><g clip-path="url(#115f07b4a6)"><path stroke-linecap="round" transform="matrix(3.094005, 0, 0, 3.094005, -9.62308, -18.131536)" fill="none" stroke-linejoin="round" d="M 10.497252 32.28102 C 14.706502 36.111512 17.427237 39.559461 21.929392 47.551227 C 31.718989 22.842403 45.123189 16.498229 43.422571 15.403622 C 39.984723 13.096994 23.253778 32.437573 21.231217 34.990393 C 18.798336 33.701357 10.498515 29.199203 10.498515 32.28102 Z M 10.497252 32.28102 " stroke="#333333" stroke-width="1.875" stroke-opacity="1" stroke-miterlimit="4"/></g></svg>